<svg width="1440" height="1080" viewBox="0 0 1440 1080" fill="none" xmlns="http://www.w3.org/2000/svg">
<rect y="89" width="1440" height="908" fill="#273686"/>
<ellipse cx="1343.5" cy="99.5" rx="96.5" ry="99.5" fill="white"/>
<ellipse cx="298.681" cy="99.5" rx="97.1709" ry="73.5" fill="white"/>
<ellipse cx="840.634" cy="99.5" rx="97.1709" ry="73.5" fill="white"/>
<ellipse cx="1119.12" cy="99.5" rx="97.1709" ry="73.5" fill="white"/>
<ellipse cx="201.008" cy="99.5" rx="48.5855" ry="49.5" fill="white"/>
<ellipse cx="403.364" cy="99.5" rx="42.5749" ry="43.5" fill="white"/>
<ellipse cx="566.651" cy="99.5" rx="42.5749" ry="43.5" fill="white"/>
<ellipse cx="744.966" cy="74.5" rx="42.5749" ry="43.5" fill="white"/>
<ellipse cx="786.038" cy="99.5" rx="42.5749" ry="43.5" fill="white"/>
<ellipse cx="1031.97" cy="100" rx="52.0916" ry="53" fill="white"/>
<ellipse cx="1247.35" cy="100" rx="52.0916" ry="53" fill="white"/>
<ellipse cx="488.514" cy="99.5" rx="62.6101" ry="50.5" fill="white"/>
<ellipse cx="952.33" cy="99.5" rx="62.6101" ry="50.5" fill="white"/>
<ellipse cx="651.301" cy="100" rx="77.1357" ry="62" fill="white"/>
<ellipse cx="1192.25" cy="199" rx="24.0423" ry="24" fill="white"/>
<ellipse cx="1379.08" cy="260.5" rx="37.5661" ry="37.5" fill="white"/>
<circle cx="1402.5" cy="162.5" r="37.5" fill="white"/>
<ellipse cx="1379.08" cy="330.5" rx="8.51498" ry="8.5" fill="white"/>
<circle cx="1377" cy="202" r="4" fill="white"/>
<circle cx="1436" cy="241" r="4" fill="white"/>
<ellipse cx="1431.52" cy="177.5" rx="8.51498" ry="8.5" fill="white"/>
<ellipse cx="719.921" cy="161.5" rx="8.51498" ry="8.5" fill="white"/>
<ellipse cx="222.045" cy="174.5" rx="8.51498" ry="8.5" fill="white"/>
<ellipse cx="394.515" cy="165.5" rx="8.51498" ry="8.5" fill="white"/>
<ellipse cx="1238.83" cy="181.5" rx="8.51498" ry="8.5" fill="white"/>
<ellipse cx="249.594" cy="178" rx="3.00529" ry="3" fill="white"/>
<ellipse cx="1294.02" cy="219" rx="13.0229" ry="13" fill="white"/>
<ellipse cx="1427.02" cy="215" rx="13.0229" ry="13" fill="white"/>
<rect x="1412" y="102" width="28" height="75" fill="white"/>
<ellipse cx="96.5" cy="99.5" rx="96.5" ry="99.5" transform="matrix(-1 0 0 1 193.046 3)" fill="white"/>
<ellipse cx="52.0916" cy="53" rx="52.0916" ry="53" transform="matrix(-1 0 0 1 244.788 50)" fill="white"/>
<ellipse cx="37.5661" cy="37.5" rx="37.5661" ry="37.5" transform="matrix(-1 0 0 1 120.132 231)" fill="white"/>
<circle cx="37.5" cy="37.5" r="37.5" transform="matrix(-1 0 0 1 75.0459 128)" fill="white"/>
<ellipse cx="8.51498" cy="8.5" rx="8.51498" ry="8.5" transform="matrix(-1 0 0 1 69.4805 325)" fill="white"/>
<circle cx="4" cy="4" r="4" transform="matrix(-1 0 0 1 67.0459 201)" fill="white"/>
<circle cx="4" cy="4" r="4" transform="matrix(-1 0 0 1 8.0459 240)" fill="white"/>
<ellipse cx="8.51498" cy="8.5" rx="8.51498" ry="8.5" transform="matrix(-1 0 0 1 17.0459 172)" fill="white"/>
<ellipse cx="13.0229" cy="13" rx="13.0229" ry="13" transform="matrix(-1 0 0 1 159.046 209)" fill="white"/>
<ellipse cx="13.0229" cy="13" rx="13.0229" ry="13" transform="matrix(-1 0 0 1 26.0459 205)" fill="white"/>
<rect width="28" height="75" transform="matrix(-1 0 0 1 28.0459 105)" fill="white"/>
<ellipse cx="96.5459" cy="980.5" rx="96.5" ry="99.5" transform="rotate(180 96.5459 980.5)" fill="white"/>
<ellipse cx="1141.37" cy="980.5" rx="97.1709" ry="73.5" transform="rotate(180 1141.37 980.5)" fill="white"/>
<ellipse cx="599.412" cy="980.5" rx="97.1709" ry="73.5" transform="rotate(180 599.412 980.5)" fill="white"/>
<ellipse cx="320.923" cy="980.5" rx="97.1709" ry="73.5" transform="rotate(180 320.923 980.5)" fill="white"/>
<ellipse cx="1239.04" cy="980.5" rx="48.5855" ry="49.5" transform="rotate(180 1239.04 980.5)" fill="white"/>
<ellipse cx="1036.68" cy="980.5" rx="42.5749" ry="43.5" transform="rotate(180 1036.68 980.5)" fill="white"/>
<ellipse cx="873.395" cy="980.5" rx="42.5749" ry="43.5" transform="rotate(180 873.395 980.5)" fill="white"/>
<ellipse cx="695.08" cy="1005.5" rx="42.5749" ry="43.5" transform="rotate(180 695.08 1005.5)" fill="white"/>
<ellipse cx="654.008" cy="980.5" rx="42.5749" ry="43.5" transform="rotate(180 654.008 980.5)" fill="white"/>
<ellipse cx="408.075" cy="980" rx="52.0916" ry="53" transform="rotate(180 408.075 980)" fill="white"/>
<ellipse cx="192.696" cy="980" rx="52.0916" ry="53" transform="rotate(180 192.696 980)" fill="white"/>
<ellipse cx="951.531" cy="980.5" rx="62.6101" ry="50.5" transform="rotate(180 951.531 980.5)" fill="white"/>
<ellipse cx="487.716" cy="980.5" rx="62.6101" ry="50.5" transform="rotate(180 487.716 980.5)" fill="white"/>
<ellipse cx="788.745" cy="980" rx="77.1357" ry="62" transform="rotate(180 788.745 980)" fill="white"/>
<ellipse cx="247.794" cy="881" rx="24.0423" ry="24" transform="rotate(180 247.794 881)" fill="white"/>
<ellipse cx="60.9652" cy="819.5" rx="37.5661" ry="37.5" transform="rotate(180 60.9652 819.5)" fill="white"/>
<circle cx="37.5459" cy="917.5" r="37.5" transform="rotate(180 37.5459 917.5)" fill="white"/>
<ellipse cx="60.9655" cy="749.5" rx="8.51498" ry="8.5" transform="rotate(180 60.9655 749.5)" fill="white"/>
<circle cx="63.0459" cy="878" r="4" transform="rotate(180 63.0459 878)" fill="white"/>
<circle cx="4.0459" cy="839" r="4" transform="rotate(180 4.0459 839)" fill="white"/>
<ellipse cx="8.53092" cy="902.5" rx="8.51498" ry="8.5" transform="rotate(180 8.53092 902.5)" fill="white"/>
<ellipse cx="720.125" cy="918.5" rx="8.51498" ry="8.5" transform="rotate(180 720.125 918.5)" fill="white"/>
<ellipse cx="1218" cy="905.5" rx="8.51498" ry="8.5" transform="rotate(180 1218 905.5)" fill="white"/>
<ellipse cx="1045.53" cy="914.5" rx="8.51498" ry="8.5" transform="rotate(180 1045.53 914.5)" fill="white"/>
<ellipse cx="201.212" cy="898.5" rx="8.51498" ry="8.5" transform="rotate(180 201.212 898.5)" fill="white"/>
<ellipse cx="1190.45" cy="902" rx="3.00529" ry="3" transform="rotate(180 1190.45 902)" fill="white"/>
<ellipse cx="146.023" cy="861" rx="13.0229" ry="13" transform="rotate(180 146.023 861)" fill="white"/>
<ellipse cx="13.023" cy="865" rx="13.0229" ry="13" transform="rotate(180 13.023 865)" fill="white"/>
<rect x="28.0459" y="978" width="28" height="75" transform="rotate(180 28.0459 978)" fill="white"/>
<ellipse cx="96.5" cy="99.5" rx="96.5" ry="99.5" transform="matrix(1 0 0 -1 1247 1077)" fill="white"/>
<ellipse cx="52.0916" cy="53" rx="52.0916" ry="53" transform="matrix(1 0 0 -1 1195.26 1030)" fill="white"/>
<ellipse cx="37.5661" cy="37.5" rx="37.5661" ry="37.5" transform="matrix(1 0 0 -1 1319.91 849)" fill="white"/>
<circle cx="37.5" cy="37.5" r="37.5" transform="matrix(1 0 0 -1 1365 952)" fill="white"/>
<ellipse cx="8.51498" cy="8.5" rx="8.51498" ry="8.5" transform="matrix(1 0 0 -1 1370.57 755)" fill="white"/>
<circle cx="4" cy="4" r="4" transform="matrix(1 0 0 -1 1373 879)" fill="white"/>
<circle cx="4" cy="4" r="4" transform="matrix(1 0 0 -1 1432 840)" fill="white"/>
<ellipse cx="8.51498" cy="8.5" rx="8.51498" ry="8.5" transform="matrix(1 0 0 -1 1423 908)" fill="white"/>
<ellipse cx="13.0229" cy="13" rx="13.0229" ry="13" transform="matrix(1 0 0 -1 1281 871)" fill="white"/>
<ellipse cx="13.0229" cy="13" rx="13.0229" ry="13" transform="matrix(1 0 0 -1 1414 875)" fill="white"/>
<rect width="28" height="75" transform="matrix(1 0 0 -1 1412 975)" fill="white"/>
</svg>
